<?xml version="1.0" encoding="utf-8"?>
<!-- Generator: Adobe Illustrator 21.0.0, SVG Export Plug-In . SVG Version: 6.00 Build 0)  -->
<svg version="1.1" id="Layer_1" xmlns="http://www.w3.org/2000/svg" xmlns:xlink="http://www.w3.org/1999/xlink" x="0px" y="0px"
	 viewBox="0 0 18.7 12.7" style="enable-background:new 0 0 18.7 12.7;" xml:space="preserve">
<style type="text/css">
	.st0{fill:#151515;}
</style>
<g id="Group_8878" transform="translate(-149.32 717.479) rotate(-90)">
	<path id="Rectangle_2699" class="st0" d="M709.2,157.2l6.8,6.3c0.8,0.8,0.9,2.1,0.1,2.9l0,0c-0.8,0.8-2.1,0.9-2.9,0.1l-6.8-6.3
		c-0.8-0.8-0.9-2.1-0.1-2.9l0,0C707,156.5,708.3,156.4,709.2,157.2z"/>
	<path id="Rectangle_2700" class="st0" d="M706.3,157.1l6.8-6.3c0.8-0.8,2.2-0.7,2.9,0.1l0,0c0.8,0.8,0.7,2.2-0.1,2.9l-6.8,6.3
		c-0.8,0.8-2.2,0.7-2.9-0.1l0,0C705.5,159.2,705.5,157.8,706.3,157.1z"/>
</g>
</svg>
