<?xml version="1.0" encoding="utf-8"?>
<!-- Generator: Adobe Illustrator 21.0.0, SVG Export Plug-In . SVG Version: 6.00 Build 0)  -->
<svg version="1.1" id="Layer_1" xmlns="http://www.w3.org/2000/svg" xmlns:xlink="http://www.w3.org/1999/xlink" x="0px" y="0px"
	 viewBox="0 0 73 73" style="enable-background:new 0 0 73 73;" xml:space="preserve">
<style type="text/css">
	.st0{fill:#FFFFFF;}
	.st1{fill:none;stroke:#454545;}
</style>
<g transform="matrix(1, 0, 0, 1, 0, 0)">
	<g id="Rectangle_2938-2" transform="translate(9 6)">
		<path class="st0" d="M10,0h35c5.5,0,10,4.5,10,10v35c0,5.5-4.5,10-10,10H10C4.5,55,0,50.5,0,45V10C0,4.5,4.5,0,10,0z"/>
		<path class="st1" d="M10,0.5h35c5.2,0,9.5,4.3,9.5,9.5v35c0,5.2-4.3,9.5-9.5,9.5H10c-5.2,0-9.5-4.3-9.5-9.5V10
			C0.5,4.8,4.8,0.5,10,0.5z"/>
	</g>
</g>
</svg>
