<?xml version="1.0" encoding="utf-8"?>
<!-- Generator: Adobe Illustrator 21.0.0, SVG Export Plug-In . SVG Version: 6.00 Build 0)  -->
<svg version="1.1" id="Layer_1" xmlns="http://www.w3.org/2000/svg" xmlns:xlink="http://www.w3.org/1999/xlink" x="0px" y="0px"
	 viewBox="0 0 35.6 29.2" style="enable-background:new 0 0 35.6 29.2;" xml:space="preserve">
<style type="text/css">
	.st0{fill:#646464;stroke:#707070;stroke-width:0.2;}
</style>
<g id="coins" transform="translate(0.1 -45.9)">
	<path id="Path_2776" class="st0" d="M17.7,69.5c-0.4,0-0.7,0.3-0.7,0.7s0.3,0.7,0.7,0.7s0.7-0.3,0.7-0.7
		C18.4,69.8,18.1,69.5,17.7,69.5z"/>
	<path id="Path_2777" class="st0" d="M32.4,47.1c-2-0.7-4.1-1.1-6.2-1.1c-2.1,0-4.2,0.3-6.2,1.1c-0.9,0.3-1.6,0.8-2.3,1.5
		c-0.6-0.6-1.4-1.1-2.3-1.5c-2-0.7-4.1-1.1-6.2-1.1C7.1,46,5,46.3,3,47.1c-1.9,0.8-3,1.9-3,3.1v16.6c0,1.2,1.1,2.3,3,3.1
		c1.8,0.7,3.8,1,5.7,1.1v0c0,2.4,3.9,4.1,9,4.1s9-1.8,9-4.1v0c2,0,3.9-0.4,5.7-1.1c1.9-0.8,3-1.9,3-3.1V50.1
		C35.4,48.9,34.3,47.8,32.4,47.1z M34,62.6c0,0.6-0.8,1.3-2.1,1.8c-1.7,0.6-3.4,0.9-5.2,1v-2.8c0,0,0,0,0,0c2,0,3.9-0.4,5.7-1.1
		c0.6-0.2,1.1-0.5,1.6-0.8L34,62.6L34,62.6z M17,54.3c0,0.6-0.8,1.3-2.1,1.8c-1.8,0.7-3.8,1-5.7,1c-1.9,0-3.9-0.3-5.7-1
		c-1.3-0.5-2.1-1.2-2.1-1.8v-1.9c0.5,0.3,1,0.6,1.6,0.8c2,0.7,4.1,1.1,6.2,1.1c2.1,0,4.2-0.3,6.2-1.1c0.6-0.2,1.1-0.5,1.6-0.8
		L17,54.3z M3,57.4c2,0.7,4.1,1.1,6.2,1.1c2.1,0,4.2-0.3,6.2-1.1c0.6-0.2,1.1-0.5,1.6-0.8v1.9c-1.7,0-3.3,0.3-4.9,0.8
		c-1.1,0.3-2.2,1-2.9,1.9c-1.9,0-3.9-0.3-5.7-1c-1.3-0.5-2.1-1.2-2.1-1.8v-1.9C1.9,56.9,2.4,57.1,3,57.4z M1.4,60.7
		c0.5,0.3,1,0.6,1.6,0.8c1.8,0.7,3.8,1,5.7,1.1c0,0,0,0,0,0v2.8c-1.8,0-3.5-0.3-5.2-1c-1.3-0.5-2.1-1.2-2.1-1.8L1.4,60.7z
		 M10.2,62.2c0.5-1.2,3.5-2.4,7.5-2.4s7,1.2,7.5,2.4c0,0.1,0.1,0.2,0.1,0.3c0,0.6-0.7,1.3-2,1.8c-1.8,0.7-3.7,1-5.6,1
		c-1.9,0-3.8-0.3-5.6-1c-1.3-0.5-2-1.2-2-1.8C10.1,62.5,10.1,62.3,10.2,62.2L10.2,62.2z M34,58.4c0,0.6-0.8,1.3-2.1,1.8
		c-1.8,0.7-3.7,1-5.7,1c-0.8-0.9-1.8-1.6-2.9-1.9c-1.6-0.5-3.2-0.8-4.9-0.8v-1.9c0.5,0.3,1,0.6,1.6,0.8c2,0.7,4.1,1.1,6.2,1.1
		c2.1,0,4.2-0.3,6.2-1.1c0.6-0.2,1.1-0.5,1.6-0.8L34,58.4z M34,54.3c0,0.6-0.8,1.3-2.1,1.8c-1.8,0.7-3.8,1-5.7,1
		c-1.9,0-3.9-0.3-5.7-1c-1.3-0.5-2.1-1.2-2.1-1.8v-1.9c0.5,0.3,1,0.6,1.6,0.8c2,0.7,4.1,1.1,6.2,1.1c2.1,0,4.2-0.3,6.2-1.1
		c0.6-0.2,1.1-0.5,1.6-0.8L34,54.3z M20.5,48.3c1.8-0.7,3.8-1,5.7-1c1.9,0,3.9,0.3,5.7,1c1.3,0.5,2.1,1.2,2.1,1.8s-0.8,1.3-2.1,1.8
		c-1.8,0.7-3.8,1-5.7,1c-1.9,0-3.9-0.3-5.7-1c-1.3-0.5-2.1-1.2-2.1-1.8S19.2,48.9,20.5,48.3z M3.5,48.3c1.8-0.7,3.8-1,5.7-1
		c1.9,0,3.9,0.3,5.7,1c1.3,0.5,2.1,1.2,2.1,1.8s-0.8,1.3-2.1,1.8c-1.8,0.7-3.8,1-5.7,1c-1.9,0-3.9-0.3-5.7-1
		c-1.3-0.5-2.1-1.2-2.1-1.8S2.2,48.9,3.5,48.3z M3.5,68.5c-1.3-0.5-2.1-1.2-2.1-1.8v-1.9c0.5,0.3,1,0.6,1.6,0.8
		c1.8,0.7,3.8,1,5.7,1.1v2.8C6.9,69.5,5.2,69.1,3.5,68.5z M23.3,72.7c-1.8,0.7-3.7,1-5.6,1c-1.9,0-3.8-0.3-5.6-1
		c-1.3-0.5-2-1.2-2-1.8V69c0.2,0.1,0.3,0.2,0.5,0.3c1.3,0.7,2.7,1.1,4.2,1.3c0,0,0.1,0,0.1,0c0.4,0,0.7-0.3,0.7-0.7
		c0-0.3-0.3-0.6-0.6-0.7c-3.2-0.5-4.9-1.7-4.9-2.6v-1.9c1.6,1.1,4.3,1.9,7.6,1.9s6-0.7,7.6-1.9v1.9c0,0.9-1.7,2.1-4.9,2.6
		c-0.4,0.1-0.6,0.4-0.6,0.8c0.1,0.3,0.3,0.6,0.7,0.6c0,0,0.1,0,0.1,0c1.5-0.2,2.9-0.6,4.2-1.3c0.2-0.1,0.4-0.2,0.5-0.3v1.9
		C25.3,71.5,24.5,72.1,23.3,72.7z M31.9,68.5c-1.7,0.6-3.4,0.9-5.2,1v-2.8c2,0,3.9-0.4,5.7-1.1c0.6-0.2,1.1-0.5,1.6-0.8v1.9
		C34,67.3,33.2,68,31.9,68.5L31.9,68.5z"/>
</g>
</svg>
