<?xml version="1.0" encoding="utf-8"?>
<!-- Generator: Adobe Illustrator 21.0.0, SVG Export Plug-In . SVG Version: 6.00 Build 0)  -->
<svg version="1.1" id="Layer_1" xmlns="http://www.w3.org/2000/svg" xmlns:xlink="http://www.w3.org/1999/xlink" x="0px" y="0px"
	 viewBox="0 0 27.6 27.8" style="enable-background:new 0 0 27.6 27.8;" xml:space="preserve">
<style type="text/css">
	.st0{fill:#646464;stroke:#707070;stroke-width:0.1;}
</style>
<g id="Group_8896" transform="translate(0.047 0.228)">
	<path id="Path_2778" class="st0" d="M9.4,8.6c0.2,0,0.3-0.1,0.4-0.2l0.2-0.2c0.2-0.2,0.2-0.6,0-0.8c-0.2-0.2-0.6-0.2-0.8,0L9,7.6
		C8.8,7.9,8.8,8.2,9,8.5C9.1,8.6,9.3,8.6,9.4,8.6L9.4,8.6z"/>
	<path id="Path_2779" class="st0" d="M14.2,23.6l0.5,0.5c0.2,0.2,0.6,0.2,0.8,0c0,0,0,0,0,0l11.8-11.8c0.2-0.2,0.2-0.6,0-0.8
		L16.7,0.8c-1.1-1.1-2.9-1.1-4,0L0.9,12.6l0,0l0,0l-0.1,0.1l0,0.1l0,0l0,0l-0.1,0.1l0,0c-1,1.1-0.9,2.8,0.2,3.9l1.2,1.2l-1.9,1.9
		C0,20,0,20.3,0.2,20.6c0.1,0.1,0.3,0.2,0.4,0.2h2.7v2.7c0,0.3,0.3,0.6,0.6,0.6c0.1,0,0.3-0.1,0.4-0.2l1.9-1.9l4.4,4.4H8
		c-0.3,0-0.6,0.2-0.6,0.5s0.2,0.6,0.5,0.6c0,0,0,0,0,0h11.5c0.3,0,0.6-0.3,0.5-0.6c0-0.3-0.3-0.5-0.5-0.5h-6.9
		C12.7,25.2,13.3,24.2,14.2,23.6z M13.4,1.6c0.7-0.7,1.8-0.7,2.4,0l10.3,10.3l-11,11L5.3,13l3.1-3.1c0.2-0.2,0.2-0.6,0-0.8
		c-0.2-0.2-0.6-0.2-0.8,0c0,0,0,0,0,0l-3.1,3.1c-0.4-0.2-0.8-0.4-1.2-0.4L13.4,1.6z M3.8,19.6H2l2.5-2.5l2.4,2.4L4.4,22v-1.9
		C4.4,19.8,4.1,19.6,3.8,19.6C3.8,19.6,3.8,19.6,3.8,19.6L3.8,19.6z M11.5,25.7l-4.6-4.6l0.8-0.8l1.4,1.4c0.2,0.2,0.6,0.2,0.8,0
		c0.2-0.2,0.2-0.6,0-0.8l-1.8-1.8l0,0l-3.2-3.2c-0.2-0.2-0.6-0.2-0.8,0l-1.2,1.2l-1.2-1.2c-0.7-0.7-0.7-1.8,0-2.4l0,0
		c0.7-0.7,1.8-0.7,2.4,0l9.3,9.3C12.5,23.5,11.8,24.5,11.5,25.7L11.5,25.7z"/>
	<path id="Path_2780" class="st0" d="M11.2,22.2c-0.2-0.2-0.6-0.2-0.8,0c-0.2,0.2-0.2,0.6,0,0.8l0.2,0.2c0.2,0.2,0.6,0.2,0.8,0
		s0.2-0.6,0-0.8c0,0,0,0,0,0L11.2,22.2z"/>
	<path id="Path_2781" class="st0" d="M18.5,17.7c0.2,0,0.3-0.1,0.4-0.2l0.2-0.2c0.2-0.2,0.2-0.6,0-0.8c-0.2-0.2-0.6-0.2-0.8,0
		l-0.2,0.2c-0.2,0.2-0.2,0.6,0,0.8C18.2,17.6,18.3,17.7,18.5,17.7L18.5,17.7z"/>
	<path id="Path_2782" class="st0" d="M20.2,16c0.2,0,0.3-0.1,0.4-0.2l3.5-3.5c0.2-0.2,0.2-0.6,0-0.8s-0.6-0.2-0.8,0c0,0,0,0,0,0
		L19.8,15c-0.2,0.2-0.2,0.6,0,0.8C19.9,15.9,20,16,20.2,16L20.2,16z"/>
</g>
</svg>
