<?xml version="1.0" encoding="utf-8"?>
<!-- Generator: Adobe Illustrator 21.0.0, SVG Export Plug-In . SVG Version: 6.00 Build 0)  -->
<svg version="1.1" id="Layer_1" xmlns="http://www.w3.org/2000/svg" xmlns:xlink="http://www.w3.org/1999/xlink" x="0px" y="0px"
	 viewBox="0 0 37.6 28.5" style="enable-background:new 0 0 37.6 28.5;" xml:space="preserve">
<style type="text/css">
	.st0{fill:#646464;stroke:#646464;}
</style>
<path id="mail" class="st0" d="M4.7,28h28.3c2.3,0,4.1-1.9,4.2-4.2V4.7c0-2.3-1.9-4.1-4.2-4.2H4.7c-2.3,0-4.1,1.9-4.2,4.2v19.2
	C0.5,26.1,2.4,28,4.7,28z M4.7,26.7c-0.6,0-1.3-0.2-1.8-0.6l8.5-8.6c0.2-0.2,0.2-0.6,0-0.9c-0.2-0.2-0.6-0.2-0.9,0l0,0l-8.4,8.6
	c-0.2-0.4-0.3-0.9-0.3-1.4V6l14.4,12.2c1.5,1.3,3.8,1.3,5.4,0L35.8,6v17.8c0,0.5-0.1,1-0.3,1.4l-8.4-8.6c-0.2-0.2-0.6-0.2-0.9,0
	c-0.2,0.2-0.2,0.6,0,0.9l0,0l8.5,8.6c-0.5,0.4-1.1,0.6-1.8,0.6L4.7,26.7z M4.7,1.7h28.3c1.5,0,2.8,1.2,2.9,2.7L20.7,17.2
	c-1.1,0.9-2.7,0.9-3.8,0L1.7,4.4C1.9,2.9,3.1,1.7,4.7,1.7L4.7,1.7z"/>
</svg>
